<?xml version="1.0" encoding="UTF-8"?>
<svg width="40px" height="40px" viewBox="0 0 40 40" version="1.1" xmlns="http://www.w3.org/2000/svg" xmlns:xlink="http://www.w3.org/1999/xlink">
    <title>V1</title>
    <g id="Page-1" stroke="none" stroke-width="1" fill="none" fill-rule="evenodd">
        <g id="Icons" transform="translate(-96.000000, -92.000000)" fill="#000000" fill-rule="nonzero">
            <g id="V1" transform="translate(96.000000, 92.000000)">
                <g id="help.svg-copy">
                    <path d="M39.0981818,26.46 C39.0981818,20.7610654 35.2582245,15.7819176 29.8432671,14.2814915 C29.5029119,6.34892045 22.9439915,0 14.9290909,0 C6.69703127,0 0,6.69703127 0,14.9290909 C0,17.6119602 0.71411928,20.2241335 2.07017045,22.517429 L0.0548863636,29.8029972 L7.34075282,27.7880114 C9.44880682,29.0345881 11.8268182,29.7367755 14.2811932,29.8426705 C15.781321,35.2579262 20.7607671,39.0981818 26.46,39.0981818 C28.7348011,39.0981818 30.9469602,38.4923437 32.8906534,37.3412216 L39.0429972,39.0429972 L37.3412216,32.8906534 C38.4923437,30.9469602 39.0981818,28.7348011 39.0981818,26.46 Z M7.70228691,25.3109659 L3.34061081,26.517571 L4.54721591,22.1558949 L4.27218746,21.7257528 C2.97609373,19.6979404 2.29090909,17.3476705 2.29090909,14.9290909 C2.29090909,7.96031254 7.96031254,2.29090909 14.9290909,2.29090909 C21.8978693,2.29090909 27.5672727,7.96031254 27.5672727,14.9290909 C27.5672727,21.8978693 21.8978693,27.5672727 14.9290909,27.5672727 C12.5105114,27.5672727 10.1605398,26.8820881 8.132429,25.5859944 L7.70228691,25.3109659 Z M35.757571,35.757571 L32.5210654,34.8620881 L32.0888353,35.1433807 C30.4133096,36.2318608 28.4666335,36.8072727 26.46,36.8072727 C21.9807955,36.8072727 18.0447869,33.9111222 16.6502556,29.7582528 C23.5092614,28.9674716 28.9674716,23.5092614 29.7585511,16.6499574 C33.9111222,18.0447869 36.8072727,21.9807955 36.8072727,26.46 C36.8072727,28.4666335 36.2318608,30.4133096 35.1433807,32.0888353 L34.8620881,32.5210654 L35.757571,35.757571 Z" id="Shape"></path>
                    <polygon id="Path" points="13.7836364 20.6945455 16.0745455 20.6945455 16.0745455 22.9854545 13.7836364 22.9854545"></polygon>
                    <path d="M17.22,11.4545455 C17.22,12.1051278 16.9551136,12.7055966 16.4742614,13.1455824 L13.7836364,15.6083096 L13.7836364,18.4036364 L16.0745455,18.4036364 L16.0745455,16.6171449 L18.0209233,14.8357245 C18.9677131,13.9691762 19.5109091,12.7369176 19.5109091,11.4545455 C19.5109091,8.92798292 17.4556534,6.87272727 14.9290909,6.87272727 C12.4025284,6.87272727 10.3472727,8.92798292 10.3472727,11.4545455 L12.6381818,11.4545455 C12.6381818,10.1912642 13.6658096,9.16363636 14.9290909,9.16363636 C16.1923722,9.16363636 17.22,10.1912642 17.22,11.4545455 Z" id="Path"></path>
                </g>
            </g>
        </g>
    </g>
</svg>