<?xml version="1.0" encoding="UTF-8"?>
<svg width="42px" height="42px" viewBox="0 0 42 42" version="1.1" xmlns="http://www.w3.org/2000/svg" xmlns:xlink="http://www.w3.org/1999/xlink">
    <title>V2</title>
    <g id="Page-1" stroke="none" stroke-width="1" fill="none" fill-rule="evenodd">
        <g id="Icons" transform="translate(-207.000000, -94.000000)">
            <g id="V2" transform="translate(208.000000, 95.000000)">
                <g id="Speaker.svg-Copy">
                    <g id="microphone-2-copy" transform="translate(12.444444, 7.111111)" fill="#000000" fill-rule="nonzero">
                        <path d="M15.8246025,12.7548348 C15.8246025,12.2609118 15.4468966,11.883206 14.9529737,11.883206 C14.4590507,11.883206 14.0813449,12.2609118 14.0813449,12.7548348 C14.0813449,16.1541871 11.321187,18.914345 7.92183467,18.914345 C4.52248235,18.914345 1.76232448,16.1541871 1.76232448,12.7548348 C1.76232448,12.2609118 1.38461867,11.883206 0.89069568,11.883206 C0.396772693,11.883206 0.01906688,12.2609118 0.01906688,12.7548348 C0.01906688,16.7933815 3.04071339,20.1927339 7.05020587,20.6285483 L7.05020587,22.9528917 L3.88328789,22.9528917 C3.38936491,22.9528917 3.01165909,23.3305975 3.01165909,23.8245205 C3.01165909,24.3184435 3.38936491,24.6961493 3.88328789,24.6961493 L11.9603814,24.6961493 C12.4543044,24.6961493 12.8320102,24.3184435 12.8320102,23.8245205 C12.8320102,23.3305975 12.4543044,22.9528917 11.9603814,22.9528917 L8.79346347,22.9528917 L8.79346347,20.6285483 C12.8029559,20.1927339 15.8246025,16.7933815 15.8246025,12.7548348 Z" id="Path"></path>
                        <path d="M7.92183467,0 C5.24883968,0 3.06976768,2.179072 3.06976768,4.85206699 L3.06976768,12.7257805 C3.06976768,15.4278298 5.24883968,17.5778475 7.92183467,17.6069018 C10.5948297,17.6069018 12.7739017,15.4278298 12.7739017,12.7548348 L12.7739017,4.85206699 C12.7739017,2.179072 10.5948297,0 7.92183467,0 Z" id="Path"></path>
                    </g>
                    <circle id="Oval" stroke="#000000" stroke-width="1.9" cx="20" cy="20" r="20"></circle>
                </g>
            </g>
        </g>
    </g>
</svg>