<?xml version="1.0" encoding="UTF-8"?>
<svg width="44px" height="41px" viewBox="0 0 44 41" version="1.1" xmlns="http://www.w3.org/2000/svg" xmlns:xlink="http://www.w3.org/1999/xlink">
    <title>V3</title>
    <g id="Page-1" stroke="none" stroke-width="1" fill="none" fill-rule="evenodd">
        <g id="Icons" transform="translate(-332.000000, -94.000000)" fill="#000000" fill-rule="nonzero">
            <g id="V3" transform="translate(332.000000, 94.044888)">
                <path d="M37.4737098,4.39470682e-12 L5.9731473,4.39470682e-12 C2.67962945,4.39470682e-12 2.84217094e-14,2.65203745 2.84217094e-14,5.91281248 L2.84217094e-14,24.995775 C2.84217094e-14,28.2492 2.66796159,30.8970374 5.95193302,30.9085875 L5.95193302,39.5682 L18.523784,30.9085875 L37.4737098,30.9085875 C40.7672277,30.9085875 43.4468571,28.256025 43.4468571,24.995775 L43.4468571,5.91281248 C43.4468571,2.65203745 40.7672277,4.39470682e-12 37.4737098,4.39470682e-12 Z M40.9011429,24.995775 C40.9011429,26.86635 39.3636375,28.3885875 37.4737098,28.3885875 L17.725066,28.3885875 L8.4976473,34.7447625 L8.4976473,28.3885875 L5.9731473,28.3885875 C4.08321968,28.3885875 2.54571429,26.86635 2.54571429,24.995775 L2.54571429,5.91281248 C2.54571429,4.04171248 4.08321968,2.52 5.9731473,2.52 L37.4737098,2.52 C39.3636375,2.52 40.9011429,4.04171248 40.9011429,5.91281248 L40.9011429,24.995775 Z" id="Shape"></path>
                <polygon id="Path" points="11.6283456 8.90426248 31.8185116 8.90426248 31.8185116 11.4242625 11.6283456 11.4242625"></polygon>
                <polygon id="Path" points="11.6283456 14.2802625 31.8185116 14.2802625 31.8185116 16.8002625 11.6283456 16.8002625"></polygon>
                <polygon id="Path" points="11.6283456 19.6562625 31.8185116 19.6562625 31.8185116 22.1762625 11.6283456 22.1762625"></polygon>
            </g>
        </g>
    </g>
</svg>