<?xml version="1.0" encoding="UTF-8"?>
<svg width="40px" height="40px" viewBox="0 0 40 40" version="1.1" xmlns="http://www.w3.org/2000/svg" xmlns:xlink="http://www.w3.org/1999/xlink">
    <title>V4</title>
    <g id="Page-1" stroke="none" stroke-width="1" fill="none" fill-rule="evenodd">
        <g id="Icons" transform="translate(-461.000000, -94.000000)" fill="#000000" fill-rule="nonzero">
            <g id="V4" transform="translate(461.000000, 94.000000)">
                <g id="messenger-copy-2">
                    <path d="M20,0 C8.9465332,0 0,8.94500734 0,20 C0,23.5079956 0.914917031,26.9342041 2.65228273,29.9560547 L0.0753784375,37.9583741 C-0.104370156,38.5162353 0.043335,39.1278077 0.457763672,39.5422363 C0.868225078,39.9526977 1.47827148,40.105896 2.04162594,39.9246216 L10.0439453,37.3477173 C13.0657959,39.085083 16.4920044,40 20,40 C31.0534668,40 40,31.0549927 40,20 C40,8.9465332 31.0549927,0 20,0 Z M20,36.875 C16.8313598,36.875 13.7426758,35.9909058 11.0678101,34.3182373 C10.6829834,34.0777588 10.2050781,34.0127563 9.76043703,34.1558838 L3.98376469,36.0162353 L5.84411625,30.239563 C5.98510742,29.8013305 5.92559813,29.3228149 5.6814575,28.9321899 C4.00909422,26.2573242 3.125,23.1686402 3.125,20 C3.125,10.6951905 10.6951905,3.125 20,3.125 C29.3048095,3.125 36.875,10.6951905 36.875,20 C36.875,29.3048095 29.3048095,36.875 20,36.875 Z M21.953125,20 C21.953125,21.0784912 21.0787964,21.953125 20,21.953125 C18.9212036,21.953125 18.046875,21.0784912 18.046875,20 C18.046875,18.9212036 18.9212036,18.046875 20,18.046875 C21.0787964,18.046875 21.953125,18.9212036 21.953125,20 Z M29.765625,20 C29.765625,21.0784912 28.8912964,21.953125 27.8125,21.953125 C26.7337036,21.953125 25.859375,21.0784912 25.859375,20 C25.859375,18.9212036 26.7337036,18.046875 27.8125,18.046875 C28.8912964,18.046875 29.765625,18.9212036 29.765625,20 Z M14.140625,20 C14.140625,21.0784912 13.2662964,21.953125 12.1875,21.953125 C11.1090088,21.953125 10.234375,21.0784912 10.234375,20 C10.234375,18.9212036 11.1090088,18.046875 12.1875,18.046875 C13.2662964,18.046875 14.140625,18.9212036 14.140625,20 Z" id="Shape"></path>
                </g>
            </g>
        </g>
    </g>
</svg>